<svg width="53" height="52" viewBox="0 0 53 52" fill="none" xmlns="http://www.w3.org/2000/svg">
  <path d="M42.36 0C45.0457 0 47.3422 0.953559 49.2493 2.86068C51.1564 4.7678 52.11 7.06424 52.11 9.75V42.25C52.11 44.9358 51.1564 47.2322 49.2493 49.1393C47.3422 51.0464 45.0457 52 42.36 52H35.9954V31.8568H42.7324L43.748 24.0026H35.9954V18.9922C35.9954 17.7283 36.2606 16.7804 36.791 16.1484C37.3214 15.5165 38.3539 15.2005 39.8886 15.2005L44.0188 15.1667V8.15885C42.597 7.95573 40.5883 7.85417 37.9928 7.85417C34.9234 7.85417 32.4689 8.75694 30.6295 10.5625C28.7901 12.3681 27.8704 14.9184 27.8704 18.2135V24.0026H21.0996V31.8568H27.8704V52H9.85999C7.17422 52 4.87778 51.0464 2.97066 49.1393C1.06354 47.2322 0.109985 44.9358 0.109985 42.25V9.75C0.109985 7.06424 1.06354 4.7678 2.97066 2.86068C4.87778 0.953559 7.17422 0 9.85999 0H42.36Z" fill="white"/>
  </svg>
  