<svg width="54" height="52" viewBox="0 0 54 52" fill="none" xmlns="http://www.w3.org/2000/svg">
  <path d="M26.555 0C31.3724 0 35.8152 1.18706 39.8835 3.56117C43.9517 5.93528 47.1729 9.15647 49.547 13.2247C51.9212 17.293 53.1082 21.7358 53.1082 26.5532C53.1082 32.3387 51.4198 37.5421 48.0431 42.1636C44.6663 46.785 40.3041 49.9832 34.9566 51.758C34.3343 51.8732 33.8733 51.7926 33.5736 51.516C33.274 51.2394 33.1242 50.8936 33.1242 50.4787C33.1242 50.4096 33.1299 49.5279 33.1415 47.8338C33.153 46.1396 33.1587 44.5895 33.1587 43.1835C33.1587 40.9477 32.5595 39.3112 31.3609 38.2739C32.6747 38.1356 33.856 37.9282 34.9048 37.6516C35.9535 37.375 37.0368 36.9255 38.1548 36.3032C39.2727 35.6809 40.2062 34.9145 40.9553 34.004C41.7044 33.0935 42.3152 31.8834 42.7877 30.3737C43.2603 28.8639 43.4965 27.1294 43.4965 25.1702C43.4965 22.4273 42.5861 20.0532 40.7651 18.0479C41.618 15.9504 41.5258 13.5993 40.4885 10.9947C39.8431 10.7872 38.9096 10.914 37.688 11.375C36.4664 11.836 35.4061 12.3431 34.5071 12.8963L33.1933 13.7261C31.0497 13.1268 28.8369 12.8271 26.555 12.8271C24.2731 12.8271 22.0603 13.1268 19.9167 13.7261C19.5479 13.4725 19.0581 13.1613 18.4473 12.7926C17.8365 12.4238 16.8742 11.9801 15.5603 11.4614C14.2465 10.9428 13.2669 10.7872 12.6215 10.9947C11.5843 13.5993 11.4921 15.9504 12.3449 18.0479C10.524 20.0532 9.61353 22.4273 9.61353 25.1702C9.61353 27.1294 9.84979 28.8582 10.3223 30.3564C10.7948 31.8546 11.3999 33.0647 12.1375 33.9867C12.8751 34.9087 13.8028 35.6809 14.9207 36.3032C16.0386 36.9255 17.122 37.375 18.1707 37.6516C19.2195 37.9282 20.4008 38.1356 21.7146 38.2739C20.8157 39.1037 20.2509 40.2908 20.0204 41.8351C19.5364 42.0656 19.0178 42.2385 18.4646 42.3537C17.9114 42.469 17.2545 42.5266 16.4939 42.5266C15.7332 42.5266 14.9783 42.2788 14.2292 41.7832C13.4801 41.2877 12.8405 40.5674 12.3103 39.6223C11.8724 38.8848 11.3134 38.2855 10.6335 37.8245C9.95352 37.3635 9.38304 37.0869 8.92204 36.9947L8.23055 36.891C7.74651 36.891 7.41229 36.9428 7.22789 37.0465C7.0435 37.1503 6.98587 37.2828 7.05502 37.4441C7.12417 37.6055 7.22789 37.7668 7.36619 37.9282C7.50449 38.0895 7.65431 38.2278 7.81566 38.3431L8.05768 38.516C8.56477 38.7465 9.0661 39.1844 9.56167 39.8298C10.0572 40.4752 10.4203 41.0629 10.6508 41.5931L10.9965 42.3883C11.2962 43.2642 11.8032 43.973 12.5178 44.5146C13.2323 45.0563 14.0045 45.402 14.8343 45.5519C15.6641 45.7017 16.465 45.7824 17.2372 45.7939C18.0094 45.8054 18.649 45.7651 19.1561 45.6729L19.9513 45.5346C19.9513 46.4105 19.9571 47.4304 19.9686 48.5944C19.9801 49.7584 19.9859 50.3865 19.9859 50.4787C19.9859 50.8936 19.8361 51.2394 19.5364 51.516C19.2368 51.7926 18.7758 51.8732 18.1534 51.758C12.8059 49.9832 8.44376 46.785 5.06699 42.1636C1.69022 37.5421 0.00183105 32.3387 0.00183105 26.5532C0.00183105 21.7358 1.18889 17.293 3.563 13.2247C5.93711 9.15647 9.1583 5.93528 13.2266 3.56117C17.2948 1.18706 21.7376 0 26.555 0ZM10.063 38.1356C10.1321 37.9743 10.0515 37.836 9.82098 37.7207C9.59048 37.6516 9.44066 37.6746 9.37151 37.7899C9.30236 37.9512 9.38304 38.0895 9.61353 38.2048C9.82098 38.3431 9.9708 38.32 10.063 38.1356ZM11.1348 39.3112C11.2962 39.1959 11.2731 39.0115 11.0657 38.758C10.8352 38.5505 10.6508 38.516 10.5125 38.6543C10.3511 38.7695 10.3742 38.9539 10.5816 39.2074C10.8121 39.4379 10.9965 39.4725 11.1348 39.3112ZM12.172 40.867C12.3795 40.7057 12.3795 40.4867 12.172 40.2101C11.9876 39.9105 11.7917 39.8413 11.5843 40.0027C11.3768 40.1179 11.3768 40.3254 11.5843 40.625C11.7917 40.9246 11.9876 41.0053 12.172 40.867ZM13.6242 42.3191C13.8086 42.1348 13.7625 41.9158 13.4859 41.6622C13.2093 41.3856 12.9788 41.3511 12.7944 41.5585C12.5869 41.7429 12.633 41.9619 12.9327 42.2154C13.2093 42.492 13.4398 42.5266 13.6242 42.3191ZM15.5949 43.1835C15.6641 42.93 15.5142 42.7456 15.1454 42.6303C14.7997 42.5381 14.5807 42.6188 14.4885 42.8723C14.3963 43.1259 14.5462 43.2988 14.938 43.391C15.2837 43.5293 15.5027 43.4601 15.5949 43.1835ZM17.7731 43.3564C17.7731 43.0567 17.5772 42.93 17.1853 42.9761C16.8165 42.9761 16.6322 43.1028 16.6322 43.3564C16.6322 43.656 16.8281 43.7828 17.2199 43.7367C17.5887 43.7367 17.7731 43.6099 17.7731 43.3564ZM19.7784 43.0106C19.7323 42.7571 19.5249 42.6534 19.1561 42.6995C18.7873 42.7686 18.6259 42.9415 18.672 43.2181C18.7181 43.4947 18.9256 43.5869 19.2944 43.4947C19.6632 43.4025 19.8245 43.2411 19.7784 43.0106Z" fill="white"/>
  </svg>
  