<svg width="82" height="82" viewBox="0 0 82 82" fill="none" xmlns="http://www.w3.org/2000/svg">
  <path d="M60.7261 72.4863L55.2902 67.0504L51.6668 70.6738L57.1027 76.1097C58.1038 77.1108 59.7267 77.1108 60.7261 76.1097C61.7255 75.1086 61.7272 73.4874 60.7261 72.4863ZM65.8511 41.7363L60.4152 36.3004L56.7918 39.9238L62.2277 45.3597C63.2288 46.3608 64.8517 46.3608 65.8511 45.3597C66.8505 44.3586 66.8522 42.7374 65.8511 41.7363ZM21.6668 72.4863L27.1027 67.0504L30.726 70.6738L25.2901 76.1097C24.289 77.1108 22.6661 77.1108 21.6668 76.1097C20.6674 75.1086 20.6657 73.4874 21.6668 72.4863ZM16.1147 41.7363L21.5506 36.3004L25.174 39.9238L19.738 45.3597C18.737 46.3608 17.114 46.3608 16.1147 45.3597C15.1153 44.3586 15.1136 42.7374 16.1147 41.7363Z" fill="#FFCC80"/>
  <path d="M64.9167 13.6666C64.9167 10.3644 62.9538 8.54163 59.3971 8.54163C55.8403 8.54163 52.9584 12.9269 52.9584 16.2291C52.9584 17.9375 56.2435 18.7916 58.0834 18.7916C61.6401 18.7916 64.9167 16.9688 64.9167 13.6666ZM17.0834 13.6666C17.0834 10.3644 19.0462 8.54163 22.603 8.54163C26.1597 8.54163 29.0417 12.9269 29.0417 16.2291C29.0417 17.9375 25.7566 18.7916 23.9167 18.7916C20.36 18.7916 17.0834 16.9688 17.0834 13.6666Z" fill="#4DD0E1"/>
  <path d="M59.7917 11.9584C59.3386 11.9584 58.9041 12.1384 58.5837 12.4587C58.2633 12.7791 58.0833 13.2136 58.0833 13.6667C58.0833 14.1198 58.2633 14.5543 58.5837 14.8747C58.9041 15.1951 59.3386 15.375 59.7917 15.375C60.2447 15.375 60.6793 15.1951 60.9996 14.8747C61.32 14.5543 61.5 14.1198 61.5 13.6667C61.5 13.2136 61.32 12.7791 60.9996 12.4587C60.6793 12.1384 60.2447 11.9584 59.7917 11.9584ZM22.2083 11.9584C21.7553 11.9584 21.3207 12.1384 21.0004 12.4587C20.68 12.7791 20.5 13.2136 20.5 13.6667C20.5 14.1198 20.68 14.5543 21.0004 14.8747C21.3207 15.1951 21.7553 15.375 22.2083 15.375C22.6614 15.375 23.0959 15.1951 23.4163 14.8747C23.7367 14.5543 23.9167 14.1198 23.9167 13.6667C23.9167 13.2136 23.7367 12.7791 23.4163 12.4587C23.0959 12.1384 22.6614 11.9584 22.2083 11.9584Z" fill="#424242"/>
  <path d="M63.2083 58.0833C63.2083 66.2389 57.7092 75.1667 40.4704 75.1667C26.5953 75.1667 18.7916 66.2389 18.7916 58.0833C18.7916 49.5417 20.5 48.1647 20.5 41C20.5 32.9913 20.5 29.0417 20.5 23.9167C20.5 15.7611 25.7548 5.125 40.4704 5.125C55.186 5.125 61.5 11.943 61.5 22.2083C61.5 27.3333 61.0951 31.5239 61.5 39.2917C61.8177 45.3767 63.2083 52.9583 63.2083 58.0833Z" fill="#4DD0E1"/>
  <path d="M49.5417 10.25C47.7294 10.25 45.9913 10.9699 44.7098 12.2514C43.4283 13.5329 42.7083 15.271 42.7083 17.0833C42.7083 18.8956 43.4283 20.6337 44.7098 21.9152C45.9913 23.1967 47.7294 23.9167 49.5417 23.9167C51.354 23.9167 53.0921 23.1967 54.3736 21.9152C55.6551 20.6337 56.375 18.8956 56.375 17.0833C56.375 15.271 55.6551 13.5329 54.3736 12.2514C53.0921 10.9699 51.354 10.25 49.5417 10.25ZM32.4583 10.25C30.646 10.25 28.9079 10.9699 27.6264 12.2514C26.3449 13.5329 25.625 15.271 25.625 17.0833C25.625 18.8956 26.3449 20.6337 27.6264 21.9152C28.9079 23.1967 30.646 23.9167 32.4583 23.9167C34.2706 23.9167 36.0087 23.1967 37.2902 21.9152C38.5717 20.6337 39.2917 18.8956 39.2917 17.0833C39.2917 15.271 38.5717 13.5329 37.2902 12.2514C36.0087 10.9699 34.2706 10.25 32.4583 10.25Z" fill="#F5F5F5"/>
  <path d="M41 34.1666C41 35.1096 41.7654 35.875 42.7084 35.875C43.6514 35.875 44.4167 35.1096 44.4167 34.1666V29.0416H41V34.1666ZM37.5834 34.1666C37.5834 35.1096 38.3487 35.875 39.2917 35.875C40.2347 35.875 41 35.1096 41 34.1666V29.0416H37.5834V34.1666Z" fill="#EEEEEE"/>
  <path d="M45.2708 30.75C44.567 30.75 44.1553 30.6048 43.5437 30.3998C41.878 29.8394 40.0911 29.8428 38.4255 30.4032C37.819 30.6065 37.4295 30.75 36.7291 30.75C34.4502 30.75 34.1666 29.0416 34.1666 28.1875C34.1666 25.625 36.7291 23.9166 39.2916 23.9166C40.7181 23.9166 41.2818 23.9166 42.7083 23.9166C45.2708 23.9166 47.8333 25.625 47.8333 28.1875C47.8333 29.0416 47.5497 30.75 45.2708 30.75Z" fill="#FFCC80"/>
  <path d="M46.125 15.375C45.672 15.375 45.2374 15.555 44.9171 15.8754C44.5967 16.1957 44.4167 16.6303 44.4167 17.0833C44.4167 17.5364 44.5967 17.9709 44.9171 18.2913C45.2374 18.6117 45.672 18.7917 46.125 18.7917C46.5781 18.7917 47.0126 18.6117 47.333 18.2913C47.6534 17.9709 47.8334 17.5364 47.8334 17.0833C47.8334 16.6303 47.6534 16.1957 47.333 15.8754C47.0126 15.555 46.5781 15.375 46.125 15.375ZM29.0417 15.375C28.5886 15.375 28.1541 15.555 27.8337 15.8754C27.5134 16.1957 27.3334 16.6303 27.3334 17.0833C27.3334 17.5364 27.5134 17.9709 27.8337 18.2913C28.1541 18.6117 28.5886 18.7917 29.0417 18.7917C29.4948 18.7917 29.9293 18.6117 30.2497 18.2913C30.5701 17.9709 30.75 17.5364 30.75 17.0833C30.75 16.6303 30.5701 16.1957 30.2497 15.8754C29.9293 15.555 29.4948 15.375 29.0417 15.375ZM41 22.2083C40.0939 22.2083 39.2248 22.3883 38.5841 22.7087C37.9433 23.0291 37.5834 23.4636 37.5834 23.9167C37.5834 24.3697 37.9433 24.8043 38.5841 25.1246C39.2248 25.445 40.0939 25.625 41 25.625C41.9062 25.625 42.7752 25.445 43.416 25.1246C44.0567 24.8043 44.4167 24.3697 44.4167 23.9167C44.4167 23.4636 44.0567 23.0291 43.416 22.7087C42.7752 22.3883 41.9062 22.2083 41 22.2083Z" fill="#424242"/>
  </svg>
  