<svg width="53" height="52" viewBox="0 0 53 52" fill="none" xmlns="http://www.w3.org/2000/svg">
  <path d="M34.7767 26C34.7767 23.6076 33.9303 21.5651 32.2376 19.8724C30.5449 18.1797 28.5023 17.3333 26.11 17.3333C23.7176 17.3333 21.6751 18.1797 19.9824 19.8724C18.2897 21.5651 17.4433 23.6076 17.4433 26C17.4433 28.3924 18.2897 30.4349 19.9824 32.1276C21.6751 33.8203 23.7176 34.6667 26.11 34.6667C28.5023 34.6667 30.5449 33.8203 32.2376 32.1276C33.9303 30.4349 34.7767 28.3924 34.7767 26ZM39.4485 26C39.4485 29.7014 38.1508 32.8498 35.5553 35.4453C32.9598 38.0408 29.8114 39.3385 26.11 39.3385C22.4086 39.3385 19.2602 38.0408 16.6647 35.4453C14.0692 32.8498 12.7714 29.7014 12.7714 26C12.7714 22.2986 14.0692 19.1502 16.6647 16.5547C19.2602 13.9592 22.4086 12.6615 26.11 12.6615C29.8114 12.6615 32.9598 13.9592 35.5553 16.5547C38.1508 19.1502 39.4485 22.2986 39.4485 26ZM43.1048 12.1198C43.1048 12.9774 42.8001 13.7109 42.1907 14.3203C41.5813 14.9297 40.8478 15.2344 39.9902 15.2344C39.1326 15.2344 38.399 14.9297 37.7897 14.3203C37.1803 13.7109 36.8756 12.9774 36.8756 12.1198C36.8756 11.2622 37.1803 10.5286 37.7897 9.91927C38.399 9.3099 39.1326 9.00521 39.9902 9.00521C40.8478 9.00521 41.5813 9.3099 42.1907 9.91927C42.8001 10.5286 43.1048 11.2622 43.1048 12.1198ZM26.11 4.67188C25.952 4.67188 25.0887 4.66623 23.5201 4.65495C21.9516 4.64366 20.761 4.64366 19.9485 4.65495C19.136 4.66623 18.0471 4.70009 16.6816 4.75651C15.3161 4.81293 14.1538 4.92578 13.1946 5.09505C12.2354 5.26432 11.4286 5.47309 10.774 5.72135C9.64558 6.17274 8.65252 6.82726 7.79488 7.6849C6.93724 8.54253 6.28273 9.53559 5.83134 10.6641C5.58308 11.3186 5.37431 12.1254 5.20504 13.0846C5.03577 14.0438 4.92292 15.2062 4.8665 16.5716C4.81007 17.9371 4.77622 19.026 4.76493 19.8385C4.75365 20.651 4.75365 21.8416 4.76493 23.4102C4.77622 24.9787 4.78186 25.842 4.78186 26C4.78186 26.158 4.77622 27.0213 4.76493 28.5898C4.75365 30.1584 4.75365 31.349 4.76493 32.1615C4.77622 32.974 4.81007 34.0629 4.8665 35.4284C4.92292 36.7938 5.03577 37.9562 5.20504 38.9154C5.37431 39.8746 5.58308 40.6814 5.83134 41.3359C6.28273 42.4644 6.93724 43.4575 7.79488 44.3151C8.65252 45.1727 9.64558 45.8273 10.774 46.2786C11.4286 46.5269 12.2354 46.7357 13.1946 46.9049C14.1538 47.0742 15.3161 47.1871 16.6816 47.2435C18.0471 47.2999 19.136 47.3338 19.9485 47.3451C20.761 47.3563 21.9516 47.3563 23.5201 47.3451C25.0887 47.3338 25.952 47.3281 26.11 47.3281C26.268 47.3281 27.1313 47.3338 28.6998 47.3451C30.2684 47.3563 31.4589 47.3563 32.2714 47.3451C33.0839 47.3338 34.1729 47.2999 35.5384 47.2435C36.9038 47.1871 38.0662 47.0742 39.0254 46.9049C39.9846 46.7357 40.7914 46.5269 41.4459 46.2786C42.5744 45.8273 43.5675 45.1727 44.4251 44.3151C45.2827 43.4575 45.9372 42.4644 46.3886 41.3359C46.6369 40.6814 46.8457 39.8746 47.0149 38.9154C47.1842 37.9562 47.2971 36.7938 47.3535 35.4284C47.4099 34.0629 47.4438 32.974 47.455 32.1615C47.4663 31.349 47.4663 30.1584 47.455 28.5898C47.4438 27.0213 47.4381 26.158 47.4381 26C47.4381 25.842 47.4438 24.9787 47.455 23.4102C47.4663 21.8416 47.4663 20.651 47.455 19.8385C47.4438 19.026 47.4099 17.9371 47.3535 16.5716C47.2971 15.2062 47.1842 14.0438 47.0149 13.0846C46.8457 12.1254 46.6369 11.3186 46.3886 10.6641C45.9372 9.53559 45.2827 8.54253 44.4251 7.6849C43.5675 6.82726 42.5744 6.17274 41.4459 5.72135C40.7914 5.47309 39.9846 5.26432 39.0254 5.09505C38.0662 4.92578 36.9038 4.81293 35.5384 4.75651C34.1729 4.70009 33.0839 4.66623 32.2714 4.65495C31.4589 4.64366 30.2684 4.64366 28.6998 4.65495C27.1313 4.66623 26.268 4.67188 26.11 4.67188ZM52.11 26C52.11 31.1684 52.0536 34.7457 51.9407 36.7318C51.715 41.4262 50.3157 45.0599 47.7428 47.6328C45.1699 50.2057 41.5362 51.605 36.8418 51.8307C34.8556 51.9436 31.2784 52 26.11 52C20.9416 52 17.3643 51.9436 15.3782 51.8307C10.6838 51.605 7.05009 50.2057 4.47717 47.6328C1.90426 45.0599 0.504951 41.4262 0.279256 36.7318C0.166409 34.7457 0.109985 31.1684 0.109985 26C0.109985 20.8316 0.166409 17.2543 0.279256 15.2682C0.504951 10.5738 1.90426 6.9401 4.47717 4.36719C7.05009 1.79427 10.6838 0.394965 15.3782 0.169271C17.3643 0.0564236 20.9416 0 26.11 0C31.2784 0 34.8556 0.0564236 36.8418 0.169271C41.5362 0.394965 45.1699 1.79427 47.7428 4.36719C50.3157 6.9401 51.715 10.5738 51.9407 15.2682C52.0536 17.2543 52.11 20.8316 52.11 26Z" fill="white"/>
  </svg>
  