<svg width="80" height="64" viewBox="0 0 80 64" fill="none" xmlns="http://www.w3.org/2000/svg">
  <path d="M48 40H32C29.7913 40 28 41.7912 28 44V60C28 62.2088 29.7913 64 32 64H48C50.2088 64 52 62.2088 52 60V44C52 41.7912 50.2088 40 48 40ZM24 4C24 1.79125 22.2087 0 20 0H4C1.79125 0 0 1.79125 0 4V20C0 22.2087 1.79125 24 4 24H15.965L25.11 40.005C26.4975 37.6225 29.05 36 32 36H32.035L24 21.9387V16H52V8H24V4ZM76 0H60C57.7912 0 56 1.79125 56 4V20C56 22.2087 57.7912 24 60 24H76C78.2087 24 80 22.2087 80 20V4C80 1.79125 78.2087 0 76 0Z" fill="black"/>
  </svg>
  