<svg width="80" height="80" viewBox="0 0 80 80" fill="none" xmlns="http://www.w3.org/2000/svg">
  <path d="M75 25H5C2.23859 25 0 22.7614 0 20V10C0 7.23859 2.23859 5 5 5H75C77.7614 5 80 7.23859 80 10V20C80 22.7614 77.7614 25 75 25ZM67.5 11.25C65.4289 11.25 63.75 12.9289 63.75 15C63.75 17.0711 65.4289 18.75 67.5 18.75C69.5711 18.75 71.25 17.0711 71.25 15C71.25 12.9289 69.5711 11.25 67.5 11.25ZM57.5 11.25C55.4289 11.25 53.75 12.9289 53.75 15C53.75 17.0711 55.4289 18.75 57.5 18.75C59.5711 18.75 61.25 17.0711 61.25 15C61.25 12.9289 59.5711 11.25 57.5 11.25ZM75 50H5C2.23859 50 0 47.7614 0 45V35C0 32.2386 2.23859 30 5 30H75C77.7614 30 80 32.2386 80 35V45C80 47.7614 77.7614 50 75 50ZM67.5 36.25C65.4289 36.25 63.75 37.9289 63.75 40C63.75 42.0711 65.4289 43.75 67.5 43.75C69.5711 43.75 71.25 42.0711 71.25 40C71.25 37.9289 69.5711 36.25 67.5 36.25ZM57.5 36.25C55.4289 36.25 53.75 37.9289 53.75 40C53.75 42.0711 55.4289 43.75 57.5 43.75C59.5711 43.75 61.25 42.0711 61.25 40C61.25 37.9289 59.5711 36.25 57.5 36.25ZM75 75H5C2.23859 75 0 72.7614 0 70V60C0 57.2386 2.23859 55 5 55H75C77.7614 55 80 57.2386 80 60V70C80 72.7614 77.7614 75 75 75ZM67.5 61.25C65.4289 61.25 63.75 62.9289 63.75 65C63.75 67.0711 65.4289 68.75 67.5 68.75C69.5711 68.75 71.25 67.0711 71.25 65C71.25 62.9289 69.5711 61.25 67.5 61.25ZM57.5 61.25C55.4289 61.25 53.75 62.9289 53.75 65C53.75 67.0711 55.4289 68.75 57.5 68.75C59.5711 68.75 61.25 67.0711 61.25 65C61.25 62.9289 59.5711 61.25 57.5 61.25Z" fill="black"/>
  </svg>
  