<svg width="80" height="77" viewBox="0 0 80 77" fill="none" xmlns="http://www.w3.org/2000/svg">
  <path d="M61.5385 67.6923C61.5385 66.859 61.234 66.1378 60.625 65.5288C60.016 64.9199 59.2949 64.6154 58.4615 64.6154C57.6282 64.6154 56.907 64.9199 56.2981 65.5288C55.6891 66.1378 55.3846 66.859 55.3846 67.6923C55.3846 68.5256 55.6891 69.2468 56.2981 69.8558C56.907 70.4647 57.6282 70.7692 58.4615 70.7692C59.2949 70.7692 60.016 70.4647 60.625 69.8558C61.234 69.2468 61.5385 68.5256 61.5385 67.6923ZM73.8461 67.6923C73.8461 66.859 73.5417 66.1378 72.9327 65.5288C72.3237 64.9199 71.6026 64.6154 70.7692 64.6154C69.9359 64.6154 69.2147 64.9199 68.6058 65.5288C67.9968 66.1378 67.6923 66.859 67.6923 67.6923C67.6923 68.5256 67.9968 69.2468 68.6058 69.8558C69.2147 70.4647 69.9359 70.7692 70.7692 70.7692C71.6026 70.7692 72.3237 70.4647 72.9327 69.8558C73.5417 69.2468 73.8461 68.5256 73.8461 67.6923ZM80 56.9231V72.3077C80 73.5897 79.5513 74.6795 78.6538 75.5769C77.7564 76.4744 76.6667 76.9231 75.3846 76.9231H4.61538C3.33333 76.9231 2.24359 76.4744 1.34615 75.5769C0.448718 74.6795 0 73.5897 0 72.3077V56.9231C0 55.641 0.448718 54.5513 1.34615 53.6538C2.24359 52.7564 3.33333 52.3077 4.61538 52.3077H25.1442C25.8173 54.1026 26.9471 55.5769 28.5337 56.7308C30.1202 57.8846 31.891 58.4615 33.8462 58.4615H46.1538C48.109 58.4615 49.8798 57.8846 51.4663 56.7308C53.0529 55.5769 54.1827 54.1026 54.8558 52.3077H75.3846C76.6667 52.3077 77.7564 52.7564 78.6538 53.6538C79.5513 54.5513 80 55.641 80 56.9231ZM64.375 25.7692C63.8301 27.0513 62.8846 27.6923 61.5385 27.6923H49.2308V49.2308C49.2308 50.0641 48.9263 50.7853 48.3173 51.3942C47.7083 52.0032 46.9872 52.3077 46.1538 52.3077H33.8462C33.0128 52.3077 32.2917 52.0032 31.6827 51.3942C31.0737 50.7853 30.7692 50.0641 30.7692 49.2308V27.6923H18.4615C17.1154 27.6923 16.1699 27.0513 15.625 25.7692C15.0801 24.5192 15.3045 23.4135 16.2981 22.4519L37.8365 0.913462C38.4135 0.304487 39.1346 0 40 0C40.8654 0 41.5865 0.304487 42.1635 0.913462L63.7019 22.4519C64.6955 23.4135 64.9199 24.5192 64.375 25.7692Z" fill="black"/>
  </svg>
  